# xmcd CD database file
#
# Track frame offsets:
#	150
#	16518
#	30058
#	46363
#	59698
#	80596
#	103218
#	124106
#	141771
#	153333
#	167791
#	179813
#	198011
#	218173
#
# Disc length: 3098 seconds
#
# Revision: 0
# Processed by: cddbd v1.5.2PL0 Copyright (c) Steve Scherf et al.
# Submitted via: Feurio! 1.68 - http://www.feurio.com
#
DISCID=b90c180e
DTITLE=John Mayall - 1984 # Stormy Monday
DYEAR=1900
DGENRE=
TTITLE0=Oh Pretty Woman
TTITLE1=Sitting in the Rain
TTITLE2=Long Gone Midnight
TTITLE3=Hartley Quits
TTITLE4=Jenny
TTITLE5=Room to Move
TTITLE6=They Call it Stormy Monday
TTITLE7=Don't Pick a Flower
TTITLE8=Thinking of My Woman
TTITLE9=Don't Waste My Time
TTITLE10=Plan Your Revolution
TTITLE11=Took the Car
TTITLE12=Time's Moving on
TTITLE13=No Reply
EXTD=
EXTT0=
EXTT1=
EXTT2=
EXTT3=
EXTT4=
EXTT5=
EXTT6=
EXTT7=
EXTT8=
EXTT9=
EXTT10=
EXTT11=
EXTT12=
EXTT13=
PLAYORDER=
